<?xml version="1.0" encoding="UTF-8" standalone="no"?>
<!DOCTYPE svg PUBLIC "-//W3C//DTD SVG 1.1//EN" "http://www.w3.org/Graphics/SVG/1.1/DTD/svg11.dtd">
<svg width="100%" height="100%" viewBox="0 0 809 600" version="1.1" xmlns="http://www.w3.org/2000/svg" xmlns:xlink="http://www.w3.org/1999/xlink" xml:space="preserve" xmlns:serif="http://www.serif.com/" style="fill-rule:evenodd;clip-rule:evenodd;stroke-linecap:round;stroke-linejoin:round;stroke-miterlimit:1.5;">
    <g transform="matrix(5.58672,0.943416,-0.720284,4.26538,-3273.93,-1586.08)">
        <rect x="662.395" y="264.795" width="76.446" height="51.26" style="fill:white;stroke:black;stroke-width:0.2px;"/>
    </g>
    <g transform="matrix(2.27287,0,0,1.80408,-395.599,-187.14)">
        <ellipse cx="359.282" cy="246.532" rx="4.416" ry="5.349" style="fill:rgb(0,51,255);"/>
    </g>
    <g transform="matrix(1,0,0,1,-14.3865,10.6977)">
        <text x="431.036px" y="250.718px" style="font-family:'ArialMT', 'Arial', sans-serif;font-size:12px;fill:white;">1</text>
    </g>
    <g transform="matrix(1,0,0,1,-14.3865,10.6977)">
        <text x="431.036px" y="250.718px" style="font-family:'ArialMT', 'Arial', sans-serif;font-size:12px;fill:white;">1</text>
    </g>
    <g transform="matrix(2.27287,0,0,1.80408,-617.566,-59.0649)">
        <ellipse cx="359.282" cy="246.532" rx="4.416" ry="5.349" style="fill:rgb(0,51,255);"/>
    </g>
    <g transform="matrix(2.27287,0,0,1.80408,-667.454,-320.784)">
        <ellipse cx="359.282" cy="246.532" rx="4.416" ry="5.349" style="fill:rgb(0,51,255);"/>
    </g>
    <g transform="matrix(1,0,0,1,-236.353,138.772)">
        <text x="431.036px" y="250.718px" style="font-family:'ArialMT', 'Arial', sans-serif;font-size:12px;fill:white;">3</text>
    </g>
    <g transform="matrix(2.27287,0,0,1.80408,-171.933,-95.0247)">
        <ellipse cx="359.282" cy="246.532" rx="4.416" ry="5.349" style="fill:rgb(0,51,255);"/>
    </g>
    <g transform="matrix(1,0,0,1,209.28,102.813)">
        <text x="431.036px" y="250.718px" style="font-family:'ArialMT', 'Arial', sans-serif;font-size:12px;fill:white;">4</text>
    </g>
    <g transform="matrix(1,0,0,1,-286.241,-122.946)">
        <text x="431.036px" y="250.718px" style="font-family:'ArialMT', 'Arial', sans-serif;font-size:12px;fill:white;">2</text>
    </g>
</svg>
