<?xml version="1.0" encoding="UTF-8" standalone="no"?>
<!DOCTYPE svg PUBLIC "-//W3C//DTD SVG 1.1//EN" "http://www.w3.org/Graphics/SVG/1.1/DTD/svg11.dtd">
<svg width="100%" height="100%" viewBox="0 0 548 627" version="1.1" xmlns="http://www.w3.org/2000/svg" xmlns:xlink="http://www.w3.org/1999/xlink" xml:space="preserve" xmlns:serif="http://www.serif.com/" style="fill-rule:evenodd;clip-rule:evenodd;stroke-linecap:round;stroke-linejoin:round;stroke-miterlimit:1.5;">
    <g transform="matrix(0.486618,0,0,0.486618,-147.693,72.4738)">
        <path d="M551.924,296.091L1177.63,107.993L1271.36,648.632L834.025,917.143L551.924,296.091ZM748.297,389.237L1034.02,301.959L1079.22,550.577L879.507,678.126L748.297,389.237Z" style="fill:white;stroke:black;stroke-width:2.06px;"/>
    </g>
    <g transform="matrix(2.27287,0,0,1.80408,-391.251,-85.8009)">
        <ellipse cx="359.282" cy="246.532" rx="4.416" ry="5.349" style="fill:rgb(0,51,255);"/>
    </g>
    <g transform="matrix(1,0,0,1,-10.0377,111.614)">
        <text x="431.036px" y="250.718px" style="font-family:'ArialMT', 'Arial', sans-serif;font-size:12px;fill:white;">1</text>
    </g>
    <g transform="matrix(2.27287,0,0,1.80408,-520.672,-163.456)">
        <ellipse cx="359.282" cy="246.532" rx="4.416" ry="5.349" style="fill:rgb(0,51,255);"/>
    </g>
    <g transform="matrix(1,0,0,1,-139.459,33.9588)">
        <text x="431.036px" y="250.718px" style="font-family:'ArialMT', 'Arial', sans-serif;font-size:12px;fill:white;">2</text>
    </g>
    <g transform="matrix(2.27287,0,0,1.80408,-443.407,-122.866)">
        <ellipse cx="359.282" cy="246.532" rx="4.416" ry="5.349" style="fill:rgb(0,51,255);"/>
    </g>
    <g transform="matrix(1,0,0,1,-62.1941,74.549)">
        <text x="431.036px" y="250.718px" style="font-family:'ArialMT', 'Arial', sans-serif;font-size:12px;fill:white;">3</text>
    </g>
</svg>
